<?xml version="1.0" standalone="no"?>
<!DOCTYPE svg PUBLIC "-//W3C//DTD SVG 20010904//EN"
 "http://www.w3.org/TR/2001/REC-SVG-20010904/DTD/svg10.dtd">
<svg version="1.0" xmlns="http://www.w3.org/2000/svg"
 width="307.000000pt" height="131.000000pt" viewBox="0 0 307.000000 131.000000"
 preserveAspectRatio="xMidYMid meet">
<metadata>
Created by potrace 1.16, written by Peter Selinger 2001-2019
</metadata>
<g transform="translate(0.000000,131.000000) scale(0.100000,-0.100000)"
fill="#000000" stroke="none">
<path d="M2598 1189 c-12 -6 -18 -22 -18 -43 0 -79 -8 -92 -63 -105 -115 -26
-171 -98 -172 -218 0 -64 3 -76 30 -115 32 -45 101 -90 168 -108 24 -7 35 -15
31 -22 -5 -7 -2 -9 9 -5 21 8 71 -18 97 -50 41 -52 14 -120 -57 -144 -52 -17
-152 -5 -218 26 -30 15 -59 24 -65 20 -18 -11 -12 -110 8 -127 20 -17 63 -34
109 -43 l33 -7 -7 -72 c-6 -72 -5 -73 20 -80 14 -3 39 -3 56 0 28 6 31 10 31
43 0 20 3 52 6 72 6 34 8 36 63 47 75 16 145 62 178 120 22 37 27 58 27 111 0
110 -45 165 -180 221 -124 51 -143 61 -164 88 -26 33 -25 65 4 98 35 41 126
45 218 11 36 -14 69 -23 72 -20 3 4 6 30 6 59 0 61 -13 75 -89 95 l-47 12 4
64 c3 48 1 68 -9 74 -19 12 -60 11 -81 -2z"/>
<path d="M978 1053 c-14 -2 -29 -11 -32 -18 -3 -8 -4 -187 -3 -397 l2 -383 55
-8 c36 -6 65 -5 83 2 l27 11 0 382 c0 211 -4 389 -8 395 -9 14 -80 23 -124 16z"/>
<path d="M1313 1053 c-12 -2 -24 -11 -27 -19 -3 -8 -4 -183 -3 -390 2 -320 4
-376 17 -384 8 -5 106 -10 218 -10 l202 0 1 23 c5 112 12 107 -141 107 -117 0
-130 2 -130 18 0 9 0 154 0 322 0 168 -3 310 -8 316 -8 12 -93 23 -129 17z"/>
<path d="M1863 1053 c-17 -2 -34 -11 -37 -20 -4 -9 -5 -184 -4 -390 3 -319 5
-375 18 -383 8 -5 106 -10 218 -10 l203 0 -3 63 -3 62 -132 3 -133 3 0 322 c0
177 -4 328 -8 334 -9 14 -69 22 -119 16z"/>
<path d="M233 1033 c-5 -10 -8 -186 -8 -391 0 -320 2 -374 15 -383 9 -6 88 -8
195 -7 163 3 185 5 230 26 61 28 91 55 117 107 24 46 29 146 9 185 -22 42 -73
89 -109 101 l-34 11 31 19 c36 22 68 70 77 116 10 51 -15 134 -48 166 -56 54
-87 61 -285 65 -170 4 -183 3 -190 -15z m309 -115 c31 -15 58 -56 58 -90 0
-33 -36 -87 -66 -98 -14 -6 -54 -10 -90 -10 l-64 0 0 105 0 105 68 0 c37 0 80
-6 94 -12z m38 -333 c34 -17 60 -62 60 -100 0 -38 -26 -83 -60 -100 -19 -10
-58 -15 -115 -15 l-85 0 0 115 0 115 85 0 c57 0 96 -5 115 -15z"/>
</g>
</svg>
